<svg width="1236pt" height="567pt" viewBox="0.00 0.00 1235.95 567.00" xmlns="http://www.w3.org/2000/svg" xmlns:xlink="http://www.w3.org/1999/xlink">
<g id="graph0" class="graph" transform="scale(1 1) rotate(0) translate(4 563)">
<title>%3</title>
<polygon fill="white" stroke="transparent" points="-4,4 -4,-563 1231.95,-563 1231.95,4 -4,4"/>
<text text-anchor="middle" x="613.98" y="-142.8" font-family="Times,serif" font-size="14.00">Namespaces:</text>
<text text-anchor="middle" x="613.98" y="-127.8" font-family="Times,serif" font-size="14.00">rdf: http://www.w3.org/1999/02/22-rdf-syntax-ns#</text>
<text text-anchor="middle" x="613.98" y="-112.8" font-family="Times,serif" font-size="14.00">rdfs: http://www.w3.org/2000/01/rdf-schema#</text>
<text text-anchor="middle" x="613.98" y="-97.8" font-family="Times,serif" font-size="14.00">xsd: http://www.w3.org/2001/XMLSchema#</text>
<text text-anchor="middle" x="613.98" y="-82.8" font-family="Times,serif" font-size="14.00">owl: http://www.w3.org/2002/07/owl#</text>
<text text-anchor="middle" x="613.98" y="-67.8" font-family="Times,serif" font-size="14.00">foaf: http://xmlns.com/foaf/0.1/</text>
<text text-anchor="middle" x="613.98" y="-52.8" font-family="Times,serif" font-size="14.00">dc: http://purl.org/dc/elements/1.1/</text>
<text text-anchor="middle" x="613.98" y="-37.8" font-family="Times,serif" font-size="14.00">dbo: http://dbpedia.org/ontology/</text>
<text text-anchor="middle" x="613.98" y="-22.8" font-family="Times,serif" font-size="14.00">dbr: http://dbpedia.org/resource/</text>
<text text-anchor="middle" x="613.98" y="-7.8" font-family="Times,serif" font-size="14.00">http://example.org/</text>
<!-- RMaria -->
<g id="node1" class="node">
<title>RMaria</title>
<ellipse fill="none" stroke="blue" cx="38.35" cy="-458" rx="38.19" ry="18"/>
<text text-anchor="middle" x="38.35" y="-454.3" font-family="Times,serif" font-size="14.00">Maria</text>
</g>
<!-- Rfoaf:Person -->
<g id="node2" class="node">
<title>Rfoaf:Person</title>
<ellipse fill="none" stroke="blue" cx="556.74" cy="-518" rx="63.09" ry="18"/>
<text text-anchor="middle" x="556.74" y="-514.3" font-family="Times,serif" font-size="14.00">foaf:Person</text>
</g>
<!-- RMaria&#45;&gt;Rfoaf:Person -->
<g id="edge1" class="edge">
<title>RMaria-&gt;Rfoaf:Person</title>
<path fill="none" stroke="black" d="M50.87,-475.27C60.85,-488.8 76.5,-506.94 94.69,-517 143.44,-543.95 162.25,-535.64 217.69,-541 313.07,-550.22 423.93,-538.39 491.96,-528.57"/>
<polygon fill="black" stroke="black" points="492.71,-532 502.09,-527.08 491.69,-525.08 492.71,-532"/>
<text text-anchor="middle" x="293.69" y="-547.8" font-family="Times,serif" font-size="14.00">rdf:type</text>
</g>
<!-- LMaria -->
<g id="node3" class="node">
<title>LMaria</title>
<polygon fill="none" stroke="black" points="264.19,-495 264.19,-531 323.19,-531 323.19,-495 264.19,-495"/>
<text text-anchor="middle" x="293.69" y="-509.3" font-family="Times,serif" font-size="14.00">Maria</text>
</g>
<!-- RMaria&#45;&gt;LMaria -->
<g id="edge2" class="edge">
<title>RMaria-&gt;LMaria</title>
<path fill="none" stroke="black" d="M68.97,-469.09C77.22,-471.93 86.24,-474.79 94.69,-477 149.27,-491.24 213.76,-501.84 253.95,-507.72"/>
<polygon fill="black" stroke="black" points="253.47,-511.19 263.87,-509.15 254.47,-504.26 253.47,-511.19"/>
<text text-anchor="middle" x="147.19" y="-501.8" font-family="Times,serif" font-size="14.00">foaf:name</text>
</g>
<!-- Rdbr:Brazil -->
<g id="node4" class="node">
<title>Rdbr:Brazil</title>
<ellipse fill="none" stroke="blue" cx="293.69" cy="-458" rx="57.39" ry="18"/>
<text text-anchor="middle" x="293.69" y="-454.3" font-family="Times,serif" font-size="14.00">dbr:Brazil</text>
</g>
<!-- RMaria&#45;&gt;Rdbr:Brazil -->
<g id="edge3" class="edge">
<title>RMaria-&gt;Rdbr:Brazil</title>
<path fill="none" stroke="black" d="M76.73,-458C115.97,-458 178.47,-458 226.16,-458"/>
<polygon fill="black" stroke="black" points="226.4,-461.5 236.4,-458 226.4,-454.5 226.4,-461.5"/>
<text text-anchor="middle" x="147.19" y="-461.8" font-family="Times,serif" font-size="14.00">dbo:birthPlace</text>
</g>
<!-- L1980&#45;06&#45;15&#45;03|Datatype: xsd:date -->
<g id="node5" class="node">
<title>L1980-06-15-03|Datatype: xsd:date</title>
<polygon fill="none" stroke="black" points="217.69,-375 217.69,-421 369.69,-421 369.69,-375 217.69,-375"/>
<text text-anchor="middle" x="293.69" y="-405.8" font-family="Times,serif" font-size="14.00">1980-06-15-03</text>
<polyline fill="none" stroke="black" points="217.69,-398 369.69,-398 "/>
<text text-anchor="middle" x="293.69" y="-382.8" font-family="Times,serif" font-size="14.00">Datatype: xsd:date</text>
</g>
<!-- RMaria&#45;&gt;L1980&#45;06&#45;15&#45;03|Datatype: xsd:date -->
<g id="edge4" class="edge">
<title>RMaria-&gt;L1980-06-15-03|Datatype: xsd:date</title>
<path fill="none" stroke="black" d="M69,-447.05C77.26,-444.21 86.27,-441.31 94.69,-439 131.21,-428.99 172.1,-420.14 207.2,-413.25"/>
<polygon fill="black" stroke="black" points="208.26,-416.61 217.41,-411.26 206.93,-409.73 208.26,-416.61"/>
<text text-anchor="middle" x="147.19" y="-442.8" font-family="Times,serif" font-size="14.00">dbo:birthDate</text>
</g>
<!-- RJoao -->
<g id="node6" class="node">
<title>RJoao</title>
<ellipse fill="none" stroke="blue" cx="293.69" cy="-338" rx="30.59" ry="18"/>
<text text-anchor="middle" x="293.69" y="-334.3" font-family="Times,serif" font-size="14.00">Joao</text>
</g>
<!-- RMaria&#45;&gt;RJoao -->
<g id="edge5" class="edge">
<title>RMaria-&gt;RJoao</title>
<path fill="none" stroke="black" d="M50.82,-440.89C60.87,-427.15 76.66,-408.35 94.69,-397 144.37,-365.73 211.43,-350.33 253.36,-343.29"/>
<polygon fill="black" stroke="black" points="254.14,-346.71 263.46,-341.67 253.03,-339.8 254.14,-346.71"/>
<text text-anchor="middle" x="147.19" y="-400.8" font-family="Times,serif" font-size="14.00">foaf:knows</text>
</g>
<!-- RJoao&#45;&gt;Rfoaf:Person -->
<g id="edge6" class="edge">
<title>RJoao-&gt;Rfoaf:Person</title>
<path fill="none" stroke="black" d="M321.7,-345.26C336.42,-349.81 354.65,-356.45 369.69,-365 433.64,-401.35 497.55,-459.98 531.28,-493.11"/>
<polygon fill="black" stroke="black" points="529.22,-496.01 538.79,-500.56 534.15,-491.04 529.22,-496.01"/>
<text text-anchor="middle" x="431.69" y="-444.8" font-family="Times,serif" font-size="14.00">rdf:type</text>
</g>
<!-- LJoão -->
<g id="node7" class="node">
<title>LJoão</title>
<polygon fill="none" stroke="black" points="529.74,-340 529.74,-376 583.74,-376 583.74,-340 529.74,-340"/>
<text text-anchor="middle" x="556.74" y="-354.3" font-family="Times,serif" font-size="14.00">João</text>
</g>
<!-- RJoao&#45;&gt;LJoão -->
<g id="edge7" class="edge">
<title>RJoao-&gt;LJoão</title>
<path fill="none" stroke="black" d="M324.13,-340.26C372.16,-343.93 467.23,-351.22 519.39,-355.22"/>
<polygon fill="black" stroke="black" points="519.29,-358.72 529.53,-355.99 519.83,-351.74 519.29,-358.72"/>
<text text-anchor="middle" x="431.69" y="-355.8" font-family="Times,serif" font-size="14.00">foaf:name</text>
</g>
<!-- RMonaLisa -->
<g id="node8" class="node">
<title>RMonaLisa</title>
<ellipse fill="none" stroke="blue" cx="556.74" cy="-303" rx="55.79" ry="18"/>
<text text-anchor="middle" x="556.74" y="-299.3" font-family="Times,serif" font-size="14.00">MonaLisa</text>
</g>
<!-- RJoao&#45;&gt;RMonaLisa -->
<g id="edge8" class="edge">
<title>RJoao-&gt;RMonaLisa</title>
<path fill="none" stroke="black" d="M323.63,-334.12C364.66,-328.62 440.73,-318.42 494.59,-311.2"/>
<polygon fill="black" stroke="black" points="495.27,-314.64 504.72,-309.84 494.34,-307.7 495.27,-314.64"/>
<text text-anchor="middle" x="431.69" y="-328.8" font-family="Times,serif" font-size="14.00">foaf:interest</text>
</g>
<!-- Rdbr:Mona_Lisa -->
<g id="node9" class="node">
<title>Rdbr:Mona_Lisa</title>
<ellipse fill="none" stroke="blue" cx="864.12" cy="-393" rx="79.09" ry="18"/>
<text text-anchor="middle" x="864.12" y="-389.3" font-family="Times,serif" font-size="14.00">dbr:Mona_Lisa</text>
</g>
<!-- RMonaLisa&#45;&gt;Rdbr:Mona_Lisa -->
<g id="edge9" class="edge">
<title>RMonaLisa-&gt;Rdbr:Mona_Lisa</title>
<path fill="none" stroke="black" d="M591.37,-317.25C600.62,-321.27 610.63,-325.72 619.78,-330 627.89,-333.79 629.38,-335.94 637.78,-339 687.68,-357.18 746.04,-370.97 790.87,-380.06"/>
<polygon fill="black" stroke="black" points="790.3,-383.52 800.79,-382.05 791.67,-376.66 790.3,-383.52"/>
<text text-anchor="middle" x="683.78" y="-370.8" font-family="Times,serif" font-size="14.00">owl:sameAs</text>
</g>
<!-- LMona Lisa|Language: en -->
<g id="node10" class="node">
<title>LMona Lisa|Language: en</title>
<polygon fill="none" stroke="black" points="807.62,-310 807.62,-356 920.62,-356 920.62,-310 807.62,-310"/>
<text text-anchor="middle" x="864.12" y="-340.8" font-family="Times,serif" font-size="14.00">Mona Lisa</text>
<polyline fill="none" stroke="black" points="807.62,-333 920.62,-333 "/>
<text text-anchor="middle" x="864.12" y="-317.8" font-family="Times,serif" font-size="14.00">Language: en</text>
</g>
<!-- RMonaLisa&#45;&gt;LMona Lisa|Language: en -->
<g id="edge10" class="edge">
<title>RMonaLisa-&gt;LMona Lisa|Language: en</title>
<path fill="none" stroke="black" d="M610.58,-308.19C662.41,-313.28 741.57,-321.06 797.43,-326.55"/>
<polygon fill="black" stroke="black" points="797.28,-330.05 807.57,-327.54 797.96,-323.08 797.28,-330.05"/>
<text text-anchor="middle" x="683.78" y="-323.8" font-family="Times,serif" font-size="14.00">rdfs:label</text>
</g>
<!-- Rdbr:Leonardo_da_Vinci -->
<g id="node11" class="node">
<title>Rdbr:Leonardo_da_Vinci</title>
<ellipse fill="none" stroke="blue" cx="864.12" cy="-273" rx="116.18" ry="18"/>
<text text-anchor="middle" x="864.12" y="-269.3" font-family="Times,serif" font-size="14.00">dbr:Leonardo_da_Vinci</text>
</g>
<!-- RMonaLisa&#45;&gt;Rdbr:Leonardo_da_Vinci -->
<g id="edge11" class="edge">
<title>RMonaLisa-&gt;Rdbr:Leonardo_da_Vinci</title>
<path fill="none" stroke="black" d="M608.95,-296.33C618.52,-295.16 628.45,-294 637.78,-293 674.46,-289.08 714.56,-285.35 750.63,-282.19"/>
<polygon fill="black" stroke="black" points="751.03,-285.67 760.69,-281.31 750.42,-278.69 751.03,-285.67"/>
<text text-anchor="middle" x="683.78" y="-296.8" font-family="Times,serif" font-size="14.00">dc:creator</text>
</g>
<!-- RLouvre -->
<g id="node12" class="node">
<title>RLouvre</title>
<ellipse fill="none" stroke="blue" cx="864.12" cy="-219" rx="42.79" ry="18"/>
<text text-anchor="middle" x="864.12" y="-215.3" font-family="Times,serif" font-size="14.00">Louvre</text>
</g>
<!-- RMonaLisa&#45;&gt;RLouvre -->
<g id="edge12" class="edge">
<title>RMonaLisa-&gt;RLouvre</title>
<path fill="none" stroke="black" d="M586.74,-287.65C601.66,-280.26 620.34,-271.77 637.78,-266 696.52,-246.58 766.61,-233.46 812.85,-226.12"/>
<polygon fill="black" stroke="black" points="813.57,-229.55 822.92,-224.56 812.5,-222.64 813.57,-229.55"/>
<text text-anchor="middle" x="683.78" y="-269.8" font-family="Times,serif" font-size="14.00">dbo:museum</text>
</g>
<!-- Rdbr:Louvre -->
<g id="node13" class="node">
<title>Rdbr:Louvre</title>
<ellipse fill="none" stroke="blue" cx="1166.21" cy="-246" rx="61.99" ry="18"/>
<text text-anchor="middle" x="1166.21" y="-242.3" font-family="Times,serif" font-size="14.00">dbr:Louvre</text>
</g>
<!-- RLouvre&#45;&gt;Rdbr:Louvre -->
<g id="edge13" class="edge">
<title>RLouvre-&gt;Rdbr:Louvre</title>
<path fill="none" stroke="black" d="M906.22,-222.7C955.2,-227.11 1037.81,-234.54 1096.55,-239.82"/>
<polygon fill="black" stroke="black" points="1096.58,-243.34 1106.86,-240.75 1097.21,-236.37 1096.58,-243.34"/>
<text text-anchor="middle" x="1042.46" y="-242.8" font-family="Times,serif" font-size="14.00">owl:sameAs</text>
</g>
<!-- Rdbr:France -->
<g id="node14" class="node">
<title>Rdbr:France</title>
<ellipse fill="none" stroke="blue" cx="1166.21" cy="-192" rx="61.99" ry="18"/>
<text text-anchor="middle" x="1166.21" y="-188.3" font-family="Times,serif" font-size="14.00">dbr:France</text>
</g>
<!-- RLouvre&#45;&gt;Rdbr:France -->
<g id="edge14" class="edge">
<title>RLouvre-&gt;Rdbr:France</title>
<path fill="none" stroke="black" d="M906.22,-215.3C955.2,-210.89 1037.81,-203.46 1096.55,-198.18"/>
<polygon fill="black" stroke="black" points="1097.21,-201.63 1106.86,-197.25 1096.58,-194.66 1097.21,-201.63"/>
<text text-anchor="middle" x="1042.46" y="-210.8" font-family="Times,serif" font-size="14.00">dbo:location</text>
</g>
</g>
</svg>
